<svg width="8.884277" height="6.047852" viewBox="0 0 8.88428 6.04785" fill="none" xmlns="http://www.w3.org/2000/svg" xmlns:xlink="http://www.w3.org/1999/xlink">
	<desc>
			Created with Pixso.
	</desc>
	<defs/>
	<path id="Vector" d="M3.5 6.04C3.41 6.04 3.32 6.03 3.24 5.99C3.16 5.96 3.09 5.91 3.03 5.85L0.2 3.02C0.14 2.96 0.08 2.88 0.05 2.8C0.01 2.72 0 2.63 0 2.55C-0.01 2.46 0.01 2.37 0.04 2.29C0.08 2.2 0.13 2.13 0.19 2.07C0.25 2.01 0.33 1.96 0.41 1.92C0.49 1.89 0.58 1.87 0.67 1.87C0.76 1.87 0.84 1.89 0.92 1.93C1.01 1.96 1.08 2.01 1.14 2.08L3.5 4.43L7.74 0.19C7.87 0.07 8.04 0 8.21 0C8.39 0 8.56 0.07 8.68 0.19C8.81 0.32 8.88 0.48 8.88 0.66C8.88 0.84 8.81 1.01 8.68 1.13L3.97 5.85C3.91 5.91 3.83 5.96 3.75 5.99C3.67 6.03 3.59 6.04 3.5 6.04Z" fill="#FFF9F4" fill-opacity="1.000000" fill-rule="nonzero"/>
</svg>
