<svg width="24.000000" height="24.000000" viewBox="0 0 24 24" fill="none" xmlns="http://www.w3.org/2000/svg" xmlns:xlink="http://www.w3.org/1999/xlink">
	<desc>
			Created with Pixso.
	</desc>
	<defs>
		<clipPath id="clip41_351">
			<rect id="ph:copyright-thin" width="24.000000" height="24.000000" fill="white" fill-opacity="0"/>
		</clipPath>
	</defs>
	<rect id="ph:copyright-thin" width="24.000000" height="24.000000" fill="#FFFFFF" fill-opacity="0"/>
	<g clip-path="url(#clip41_351)">
		<path id="Vector" d="M12 2.62C10.14 2.62 8.33 3.17 6.79 4.2C5.25 5.23 4.04 6.69 3.33 8.41C2.62 10.12 2.44 12.01 2.8 13.82C3.16 15.64 4.05 17.31 5.37 18.62C6.68 19.94 8.35 20.83 10.17 21.19C11.98 21.55 13.87 21.37 15.58 20.66C17.3 19.95 18.76 18.75 19.79 17.2C20.82 15.66 21.37 13.85 21.37 12C21.37 9.51 20.38 7.13 18.62 5.37C16.86 3.61 14.48 2.62 12 2.62ZM12 20.62C10.29 20.62 8.62 20.11 7.2 19.17C5.79 18.22 4.68 16.87 4.03 15.3C3.37 13.72 3.2 11.99 3.54 10.31C3.87 8.64 4.69 7.1 5.9 5.9C7.1 4.69 8.64 3.87 10.31 3.54C11.99 3.2 13.72 3.37 15.3 4.03C16.87 4.68 18.22 5.79 19.17 7.2C20.11 8.62 20.62 10.29 20.62 12C20.62 14.28 19.71 16.47 18.09 18.09C16.47 19.71 14.28 20.62 12 20.62ZM15.29 14.47C14.78 15.16 14.05 15.67 13.23 15.93C12.4 16.19 11.51 16.18 10.69 15.91C9.87 15.63 9.16 15.11 8.65 14.41C8.14 13.7 7.87 12.86 7.87 12C7.87 11.13 8.14 10.29 8.65 9.58C9.16 8.88 9.87 8.36 10.69 8.08C11.51 7.81 12.4 7.8 13.23 8.06C14.05 8.32 14.78 8.83 15.29 9.52C15.32 9.56 15.35 9.6 15.36 9.65C15.37 9.7 15.37 9.75 15.37 9.8C15.36 9.85 15.34 9.89 15.32 9.94C15.29 9.98 15.26 10.01 15.22 10.04C15.18 10.07 15.14 10.1 15.09 10.11C15.04 10.12 14.99 10.12 14.94 10.12C14.89 10.11 14.85 10.09 14.8 10.07C14.76 10.04 14.72 10.01 14.7 9.97C14.27 9.4 13.68 8.98 13 8.77C12.33 8.56 11.6 8.57 10.93 8.79C10.26 9.02 9.67 9.45 9.26 10.02C8.84 10.6 8.62 11.29 8.62 12C8.62 12.7 8.84 13.39 9.26 13.97C9.67 14.54 10.26 14.97 10.93 15.2C11.6 15.42 12.33 15.43 13 15.22C13.68 15.01 14.27 14.59 14.7 14.02C14.75 13.94 14.84 13.89 14.94 13.87C15.04 13.86 15.14 13.89 15.22 13.95C15.3 14.01 15.35 14.09 15.37 14.19C15.38 14.29 15.35 14.39 15.29 14.47Z" fill="#DEC5B1" fill-opacity="1.000000" fill-rule="nonzero"/>
	</g>
</svg>
