<svg width="33.113525" height="33.116211" viewBox="0 0 33.1135 33.1162" fill="none" xmlns="http://www.w3.org/2000/svg" xmlns:xlink="http://www.w3.org/1999/xlink">
	<desc>
			Created with Pixso.
	</desc>
	<defs/>
	<path id="Vector" d="M30.32 4.64L25.91 4.64C26.08 4.01 26.08 3.36 25.92 2.73C25.75 2.11 25.42 1.54 24.97 1.08C24.27 0.4 23.33 0.01 22.35 0.01C21.37 0.01 20.42 0.4 19.72 1.08L16.55 4.27L13.38 1.08C13.04 0.74 12.63 0.46 12.18 0.28C11.73 0.09 11.25 0 10.76 0C10.27 0 9.79 0.09 9.34 0.28C8.89 0.46 8.48 0.74 8.14 1.08C7.68 1.54 7.35 2.11 7.19 2.73C7.02 3.36 7.02 4.01 7.19 4.64L2.77 4.64C2.04 4.64 1.33 4.93 0.81 5.45C0.29 5.97 0 6.68 0 7.42L0 9.27C0 9.82 0.16 10.36 0.47 10.81C0.78 11.27 1.22 11.62 1.73 11.83L1.73 28.48C1.73 29.71 2.22 30.88 3.09 31.75C3.96 32.62 5.13 33.11 6.36 33.11L26.74 33.11C27.96 33.11 29.14 32.62 30.01 31.75C30.88 30.89 31.37 29.71 31.37 28.48L31.37 11.84C31.88 11.64 32.32 11.28 32.63 10.82C32.94 10.36 33.11 9.82 33.11 9.27L33.11 7.42C33.11 7.05 33.04 6.69 32.9 6.35C32.76 6.01 32.55 5.71 32.29 5.45C32.03 5.19 31.72 4.99 31.39 4.85C31.05 4.71 30.69 4.64 30.32 4.64ZM9.44 2.4C9.79 2.05 10.26 1.86 10.75 1.86C11.24 1.86 11.71 2.05 12.05 2.4L14.3 4.64L9.16 4.64C8.95 4.29 8.87 3.88 8.92 3.47C8.97 3.06 9.15 2.68 9.44 2.4ZM14.69 31.26L6.36 31.26C5.62 31.26 4.91 30.97 4.39 30.45C3.87 29.92 3.58 29.22 3.58 28.48L3.58 12.05L14.69 12.05L14.69 31.26ZM14.69 10.2L2.77 10.2C2.53 10.2 2.29 10.1 2.12 9.92C1.95 9.75 1.85 9.52 1.85 9.27L1.85 7.42C1.85 7.17 1.95 6.94 2.12 6.76C2.29 6.59 2.53 6.49 2.77 6.49L14.69 6.49L14.69 10.2ZM21.05 2.4C21.37 2.08 21.79 1.89 22.24 1.86C22.69 1.83 23.13 1.97 23.49 2.24C23.84 2.52 24.09 2.91 24.17 3.35C24.26 3.79 24.18 4.25 23.96 4.64L18.81 4.64L21.05 2.4ZM29.51 28.48C29.51 29.22 29.22 29.92 28.7 30.45C28.18 30.97 27.47 31.26 26.74 31.26L18.4 31.26L18.4 12.05L29.51 12.05L29.51 28.48ZM31.26 9.27C31.26 9.52 31.16 9.75 30.98 9.92C30.81 10.1 30.58 10.2 30.33 10.2L18.4 10.2L18.4 6.49L30.33 6.49C30.58 6.49 30.81 6.59 30.98 6.76C31.16 6.94 31.26 7.17 31.26 7.42L31.26 9.27Z" fill="#704174" fill-opacity="1.000000" fill-rule="evenodd"/>
</svg>
