<svg width="8.599976" height="8.599609" viewBox="0 0 8.59998 8.59961" fill="none" xmlns="http://www.w3.org/2000/svg" xmlns:xlink="http://www.w3.org/1999/xlink">
	<desc>
			Created with Pixso.
	</desc>
	<defs/>
	<path id="Vector" d="M1.5 5.33L1.8 5.33C1.79 5.27 1.78 5.21 1.75 5.16C1.71 5.12 1.67 5.08 1.62 5.05L1.5 5.33ZM7.09 5.33L6.97 5.05C6.92 5.08 6.88 5.12 6.84 5.16C6.81 5.21 6.8 5.27 6.8 5.33L7.09 5.33ZM5.8 2.29C5.8 2.37 5.83 2.45 5.88 2.51C5.94 2.56 6.02 2.59 6.09 2.59C6.17 2.59 6.25 2.56 6.31 2.51C6.36 2.45 6.4 2.37 6.4 2.29L5.8 2.29ZM2.19 2.29C2.19 2.37 2.23 2.45 2.28 2.51C2.34 2.56 2.42 2.59 2.5 2.59C2.57 2.59 2.65 2.56 2.71 2.51C2.76 2.45 2.8 2.37 2.8 2.29L2.19 2.29ZM2.3 1.2C1.68 1.2 1.1 1.44 0.67 1.87C0.24 2.3 0 2.88 0 3.5L0.59 3.5C0.59 3.04 0.77 2.61 1.09 2.29C1.41 1.97 1.84 1.79 2.3 1.79L2.3 1.2ZM6.3 1.79C6.75 1.79 7.18 1.97 7.5 2.29C7.82 2.61 8 3.04 8 3.5L8.59 3.5C8.59 2.88 8.35 2.3 7.92 1.87C7.49 1.44 6.91 1.2 6.3 1.2L6.3 1.79ZM5.5 8L3.09 8L3.09 8.59L5.5 8.59L5.5 8ZM3.09 8C2.71 8 2.45 7.99 2.26 7.97C2.07 7.94 1.99 7.9 1.94 7.85L1.52 8.27C1.7 8.45 1.93 8.53 2.18 8.56C2.42 8.6 2.73 8.59 3.09 8.59L3.09 8ZM1.19 6.7C1.19 7.06 1.19 7.37 1.23 7.61C1.26 7.86 1.33 8.09 1.52 8.27L1.94 7.85C1.89 7.8 1.85 7.72 1.82 7.53C1.8 7.34 1.8 7.08 1.8 6.7L1.19 6.7ZM6.8 6.7C6.8 7.08 6.79 7.34 6.77 7.53C6.74 7.72 6.7 7.8 6.65 7.85L7.07 8.27C7.26 8.09 7.33 7.86 7.36 7.61C7.4 7.37 7.4 7.06 7.4 6.7L6.8 6.7ZM5.5 8.59C5.86 8.59 6.17 8.6 6.41 8.56C6.66 8.53 6.89 8.45 7.07 8.27L6.65 7.85C6.6 7.9 6.52 7.94 6.33 7.97C6.14 7.99 5.88 8 5.5 8L5.5 8.59ZM2.3 1.79C2.38 1.79 2.46 1.8 2.55 1.81L2.63 1.22C2.52 1.2 2.41 1.2 2.3 1.2L2.3 1.79ZM4.3 0C3.86 0 3.43 0.13 3.07 0.39C2.71 0.64 2.45 1 2.31 1.42L2.87 1.61C2.97 1.32 3.17 1.06 3.42 0.88C3.68 0.69 3.98 0.59 4.3 0.59L4.3 0ZM2.31 1.42C2.23 1.64 2.19 1.87 2.19 2.09L2.8 2.09C2.8 1.93 2.82 1.76 2.87 1.61L2.31 1.42ZM6.3 1.2C6.18 1.2 6.07 1.2 5.96 1.22L6.04 1.81C6.13 1.8 6.21 1.79 6.3 1.79L6.3 1.2ZM4.3 0.59C4.61 0.59 4.91 0.69 5.17 0.88C5.42 1.06 5.62 1.32 5.72 1.61L6.28 1.42C6.14 1 5.88 0.64 5.52 0.39C5.16 0.13 4.73 0 4.3 0L4.3 0.59ZM5.72 1.61C5.77 1.76 5.8 1.93 5.8 2.09L6.4 2.09C6.4 1.86 6.36 1.63 6.28 1.42L5.72 1.61L5.72 1.61ZM1.8 6.7L1.8 5.33L1.19 5.33L1.19 6.7L1.8 6.7ZM1.62 5.05C1.31 4.92 1.05 4.7 0.87 4.43C0.69 4.15 0.59 3.83 0.59 3.5L0 3.5C0 3.94 0.13 4.38 0.37 4.75C0.62 5.13 0.96 5.42 1.38 5.6L1.62 5.05ZM6.8 5.33L6.8 6.7L7.4 6.7L7.4 5.33L6.8 5.33ZM8 3.5C8 3.83 7.9 4.15 7.72 4.43C7.54 4.7 7.28 4.92 6.97 5.05L7.21 5.6C7.63 5.42 7.97 5.13 8.22 4.75C8.46 4.38 8.59 3.94 8.59 3.5L8 3.5ZM5.8 2.09L5.8 2.29L6.4 2.29L6.4 2.09L5.8 2.09ZM2.19 2.09L2.19 2.29L2.8 2.29L2.8 2.09L2.19 2.09Z" fill="#312C27" fill-opacity="1.000000" fill-rule="nonzero"/>
	<g opacity="0.500000">
		<path id="Vector" d="M4.3 3.49L4.09 3.71C4.14 3.76 4.22 3.79 4.3 3.79C4.37 3.79 4.45 3.76 4.5 3.71L4.3 3.49ZM4.09 4.72C3.92 4.6 3.74 4.44 3.6 4.28C3.45 4.11 3.4 3.98 3.4 3.89L2.8 3.89C2.8 4.2 2.97 4.48 3.15 4.68C3.33 4.89 3.55 5.07 3.73 5.2L4.09 4.72ZM3.4 3.89C3.4 3.66 3.5 3.56 3.59 3.53C3.69 3.5 3.88 3.51 4.09 3.71L4.5 3.28C4.17 2.96 3.76 2.84 3.39 2.97C3.02 3.1 2.8 3.46 2.8 3.89L3.4 3.89ZM4.86 5.2C5.04 5.07 5.26 4.89 5.45 4.68C5.62 4.48 5.8 4.2 5.8 3.89L5.2 3.89C5.2 3.98 5.14 4.11 4.99 4.28C4.85 4.45 4.67 4.6 4.5 4.72L4.86 5.2L4.86 5.2ZM5.8 3.89C5.8 3.46 5.57 3.1 5.2 2.97C4.83 2.84 4.42 2.96 4.09 3.28L4.5 3.71C4.71 3.51 4.9 3.5 5 3.53C5.09 3.56 5.2 3.66 5.2 3.89L5.8 3.89ZM3.73 5.2C3.88 5.31 4.05 5.45 4.3 5.45L4.3 4.85C4.29 4.85 4.28 4.85 4.26 4.84C4.2 4.8 4.14 4.76 4.09 4.72L3.73 5.2L3.73 5.2ZM4.5 4.72C4.45 4.76 4.39 4.8 4.33 4.84C4.31 4.85 4.3 4.85 4.3 4.85L4.3 5.45C4.54 5.45 4.71 5.31 4.86 5.2L4.5 4.72Z" fill="#312C27" fill-opacity="1.000000" fill-rule="nonzero"/>
	</g>
	<g opacity="0.500000">
		<path id="Vector" d="M1.5 6.7L7.09 6.7" stroke="#312C27" stroke-opacity="1.000000" stroke-width="1.500000" stroke-linejoin="round" stroke-linecap="round"/>
	</g>
</svg>
