<svg width="36.000000" height="36.000000" viewBox="0 0 36 36" fill="none" xmlns="http://www.w3.org/2000/svg" xmlns:xlink="http://www.w3.org/1999/xlink">
	<desc>
			Created with Pixso.
	</desc>
	<defs>
		<clipPath id="clip60_605">
			<rect id="basil:instagram-outline" width="36.000000" height="36.000000" fill="white" fill-opacity="0"/>
		</clipPath>
	</defs>
	<rect id="basil:instagram-outline" width="36.000000" height="36.000000" fill="#FFFFFF" fill-opacity="0"/>
	<g clip-path="url(#clip60_605)">
		<path id="Vector" d="M24 10.5C24 10.1 24.15 9.72 24.43 9.43C24.72 9.15 25.1 9 25.5 9C25.89 9 26.27 9.15 26.56 9.43C26.84 9.72 27 10.1 27 10.5C27 10.89 26.84 11.27 26.56 11.56C26.27 11.84 25.89 12 25.5 12C25.1 12 24.72 11.84 24.43 11.56C24.15 11.27 24 10.89 24 10.5Z" fill="#FFF9F4" fill-opacity="1.000000" fill-rule="nonzero"/>
		<path id="Vector" d="M18 10.87C16.11 10.87 14.29 11.62 12.96 12.96C11.62 14.29 10.87 16.11 10.87 18C10.87 19.88 11.62 21.7 12.96 23.03C14.29 24.37 16.11 25.12 18 25.12C19.88 25.12 21.7 24.37 23.03 23.03C24.37 21.7 25.12 19.88 25.12 18C25.12 16.11 24.37 14.29 23.03 12.96C21.7 11.62 19.88 10.87 18 10.87ZM13.12 18C13.12 16.7 13.63 15.46 14.55 14.55C15.46 13.63 16.7 13.12 18 13.12C19.29 13.12 20.53 13.63 21.44 14.55C22.36 15.46 22.87 16.7 22.87 18C22.87 19.29 22.36 20.53 21.44 21.44C20.53 22.36 19.29 22.87 18 22.87C16.7 22.87 15.46 22.36 14.55 21.44C13.63 20.53 13.12 19.29 13.12 18Z" fill="#FFF9F4" fill-opacity="1.000000" fill-rule="evenodd"/>
		<path id="Vector" d="M25.88 4.24C20.64 3.66 15.35 3.66 10.11 4.24C7.09 4.58 4.65 6.96 4.3 9.99C3.68 15.31 3.68 20.68 4.3 26C4.65 29.03 7.09 31.41 10.11 31.74C15.35 32.33 20.64 32.33 25.88 31.74C28.9 31.41 31.34 29.03 31.69 26C32.31 20.68 32.31 15.31 31.69 9.99C31.34 6.96 28.9 4.58 25.88 4.24ZM10.36 6.48C15.43 5.92 20.56 5.92 25.63 6.48C27.63 6.7 29.23 8.28 29.46 10.25C30.06 15.4 30.06 20.59 29.46 25.73C29.34 26.7 28.89 27.6 28.2 28.29C27.51 28.97 26.6 29.4 25.63 29.51C20.56 30.07 15.43 30.07 10.36 29.51C9.39 29.4 8.48 28.97 7.79 28.29C7.1 27.6 6.65 26.7 6.53 25.73C5.93 20.59 5.93 15.4 6.53 10.25C6.65 9.29 7.1 8.39 7.79 7.7C8.48 7.02 9.39 6.59 10.36 6.48Z" fill="#FFF9F4" fill-opacity="1.000000" fill-rule="evenodd"/>
	</g>
</svg>
