<svg width="36.000000" height="36.000000" viewBox="0 0 36 36" fill="none" xmlns="http://www.w3.org/2000/svg" xmlns:xlink="http://www.w3.org/1999/xlink">
	<desc>
			Created with Pixso.
	</desc>
	<defs>
		<clipPath id="clip60_609">
			<rect id="ant-design:youtube-outlined" width="36.000000" height="36.000000" fill="white" fill-opacity="0"/>
		</clipPath>
	</defs>
	<rect id="ant-design:youtube-outlined" width="36.000000" height="36.000000" fill="#FFFFFF" fill-opacity="0"/>
	<g clip-path="url(#clip60_609)">
		<path id="Vector" d="M33.75 17.9C33.75 17.82 33.75 17.73 33.74 17.63C33.74 17.34 33.73 17.03 33.72 16.68C33.7 15.7 33.65 14.73 33.57 13.8C33.46 12.54 33.31 11.48 33.1 10.68C32.88 9.85 32.44 9.1 31.83 8.49C31.23 7.88 30.47 7.44 29.64 7.22C28.65 6.95 26.7 6.79 23.96 6.69C22.65 6.64 21.26 6.6 19.86 6.59C19.37 6.58 18.92 6.58 18.51 6.57L17.48 6.57C17.07 6.58 16.62 6.58 16.13 6.59C14.73 6.6 13.34 6.64 12.03 6.69C9.29 6.79 7.34 6.96 6.35 7.22C5.52 7.44 4.76 7.88 4.16 8.49C3.55 9.1 3.11 9.85 2.89 10.68C2.68 11.48 2.53 12.54 2.42 13.8C2.34 14.73 2.29 15.7 2.27 16.68C2.26 17.03 2.25 17.34 2.25 17.63C2.25 17.73 2.25 17.82 2.25 17.9L2.25 18.09C2.25 18.17 2.25 18.26 2.25 18.36C2.25 18.65 2.26 18.97 2.27 19.31C2.29 20.29 2.34 21.26 2.42 22.19C2.53 23.46 2.68 24.51 2.89 25.31C3.34 26.99 4.66 28.32 6.35 28.77C7.34 29.04 9.29 29.2 12.03 29.31C13.34 29.35 14.73 29.39 16.13 29.4C16.62 29.41 17.07 29.41 17.48 29.42L18.51 29.42C18.92 29.41 19.37 29.41 19.86 29.4C21.26 29.39 22.65 29.35 23.96 29.31C26.7 29.2 28.65 29.03 29.64 28.77C31.33 28.32 32.65 27 33.1 25.31C33.31 24.51 33.46 23.46 33.57 22.19C33.65 21.26 33.7 20.29 33.72 19.31C33.73 18.97 33.74 18.65 33.74 18.36C33.74 18.26 33.75 18.17 33.75 18.09L33.75 17.9ZM31.21 18.08C31.21 18.15 31.21 18.23 31.21 18.33C31.21 18.6 31.2 18.91 31.19 19.23C31.17 20.17 31.12 21.1 31.05 21.97C30.95 23.1 30.82 24.03 30.65 24.65C30.43 25.47 29.79 26.11 28.98 26.32C28.25 26.52 26.39 26.68 23.86 26.77C22.58 26.82 21.2 26.85 19.83 26.87C19.35 26.88 18.9 26.88 18.5 26.88L17.49 26.88L16.16 26.87C14.79 26.85 13.41 26.82 12.13 26.77C9.6 26.68 7.74 26.52 7.01 26.32C6.2 26.11 5.56 25.47 5.34 24.65C5.17 24.03 5.04 23.1 4.94 21.97C4.87 21.1 4.83 20.17 4.8 19.23C4.79 18.91 4.78 18.6 4.78 18.33C4.78 18.23 4.78 18.15 4.78 18.08L4.78 17.91C4.78 17.84 4.78 17.76 4.78 17.66C4.78 17.39 4.79 17.08 4.8 16.76C4.82 15.82 4.87 14.89 4.94 14.02C5.04 12.89 5.17 11.96 5.34 11.34C5.56 10.52 6.2 9.88 7.01 9.67C7.74 9.47 9.6 9.31 12.13 9.22C13.41 9.17 14.79 9.14 16.16 9.12C16.64 9.11 17.09 9.11 17.49 9.11L18.5 9.11L19.83 9.12C21.2 9.14 22.58 9.17 23.86 9.22C26.39 9.32 28.25 9.47 28.98 9.67C29.79 9.88 30.43 10.52 30.65 11.34C30.82 11.96 30.95 12.89 31.05 14.02C31.12 14.89 31.16 15.82 31.19 16.76C31.2 17.08 31.21 17.39 31.21 17.66C31.21 17.76 31.21 17.84 31.21 17.91L31.21 18.08ZM14.87 22.71L23.02 17.96L14.87 13.28L14.87 22.71Z" fill="#FFF9F4" fill-opacity="1.000000" fill-rule="nonzero"/>
	</g>
</svg>
