<svg width="24.000000" height="24.000000" viewBox="0 0 24 24" fill="none" xmlns="http://www.w3.org/2000/svg" xmlns:xlink="http://www.w3.org/1999/xlink">
	<desc>
			Created with Pixso.
	</desc>
	<defs>
		<clipPath id="clip41_369">
			<rect id="ph:clock" width="24.000000" height="24.000000" fill="white" fill-opacity="0"/>
		</clipPath>
	</defs>
	<rect id="ph:clock" width="24.000000" height="24.000000" fill="#FFFFFF" fill-opacity="0"/>
	<g clip-path="url(#clip41_369)">
		<path id="Vector" d="M12 2.25C10.07 2.25 8.18 2.82 6.58 3.89C4.97 4.96 3.73 6.48 2.99 8.26C2.25 10.05 2.06 12.01 2.43 13.9C2.81 15.79 3.74 17.53 5.1 18.89C6.46 20.25 8.2 21.18 10.09 21.56C11.98 21.93 13.94 21.74 15.73 21C17.51 20.26 19.03 19.02 20.1 17.41C21.17 15.81 21.75 13.92 21.75 12C21.74 9.41 20.71 6.93 18.89 5.1C17.06 3.28 14.58 2.25 12 2.25ZM12 20.25C10.36 20.25 8.77 19.76 7.41 18.85C6.05 17.95 5 16.66 4.37 15.15C3.75 13.64 3.59 11.99 3.9 10.39C4.22 8.79 5.01 7.32 6.16 6.16C7.32 5.01 8.79 4.22 10.39 3.9C11.99 3.58 13.64 3.75 15.15 4.37C16.66 5 17.95 6.05 18.85 7.41C19.76 8.77 20.25 10.36 20.25 12C20.24 14.18 19.37 16.28 17.83 17.83C16.28 19.37 14.18 20.24 12 20.25ZM18 12C18 12.19 17.92 12.38 17.78 12.53C17.63 12.67 17.44 12.75 17.25 12.75L12 12.75C11.8 12.75 11.61 12.67 11.46 12.53C11.32 12.38 11.25 12.19 11.25 12L11.25 6.75C11.25 6.55 11.32 6.36 11.46 6.21C11.61 6.07 11.8 6 12 6C12.19 6 12.38 6.07 12.53 6.21C12.67 6.36 12.75 6.55 12.75 6.75L12.75 11.25L17.25 11.25C17.44 11.25 17.63 11.32 17.78 11.46C17.92 11.61 18 11.8 18 12Z" fill="#FFF9F4" fill-opacity="1.000000" fill-rule="nonzero"/>
	</g>
</svg>
