<svg width="24.000000" height="24.000000" viewBox="0 0 24 24" fill="none" xmlns="http://www.w3.org/2000/svg" xmlns:xlink="http://www.w3.org/1999/xlink">
	<desc>
			Created with Pixso.
	</desc>
	<defs>
		<clipPath id="clip41_193">
			<rect id="solar:chef-hat-heart-line-duotone" width="24.000000" height="24.000000" fill="white" fill-opacity="0"/>
		</clipPath>
	</defs>
	<rect id="solar:chef-hat-heart-line-duotone" width="24.000000" height="24.000000" fill="#FFFFFF" fill-opacity="0"/>
	<g clip-path="url(#clip41_193)">
		<path id="Vector" d="M5 14.58L5.75 14.58C5.75 14.43 5.7 14.29 5.62 14.17C5.54 14.05 5.43 13.95 5.29 13.89L5 14.58ZM19 14.58L18.7 13.89C18.56 13.95 18.45 14.05 18.37 14.17C18.29 14.29 18.25 14.43 18.25 14.58L19 14.58ZM15.75 7C15.75 7.19 15.82 7.38 15.96 7.53C16.11 7.67 16.3 7.75 16.5 7.75C16.69 7.75 16.88 7.67 17.03 7.53C17.17 7.38 17.25 7.19 17.25 7L15.75 7ZM6.75 7C6.75 7.19 6.82 7.38 6.96 7.53C7.11 7.67 7.3 7.75 7.5 7.75C7.69 7.75 7.88 7.67 8.03 7.53C8.17 7.38 8.25 7.19 8.25 7L6.75 7ZM7 4.25C5.47 4.25 4.01 4.85 2.93 5.93C1.85 7.01 1.25 8.47 1.25 10L2.75 10C2.75 8.87 3.19 7.79 3.99 6.99C4.79 6.19 5.87 5.75 7 5.75L7 4.25ZM17 5.75C18.12 5.75 19.2 6.19 20 6.99C20.8 7.79 21.25 8.87 21.25 10L22.75 10C22.75 8.47 22.14 7.01 21.06 5.93C19.98 4.85 18.52 4.25 17 4.25L17 5.75ZM15 21.25L9 21.25L9 22.75L15 22.75L15 21.25ZM9 21.25C8.03 21.25 7.38 21.24 6.9 21.18C6.44 21.12 6.24 21.01 6.11 20.88L5.05 21.94C5.51 22.4 6.07 22.58 6.7 22.66C7.31 22.75 8.07 22.75 9 22.75L9 21.25ZM4.25 18C4.25 18.92 4.24 19.68 4.33 20.29C4.41 20.92 4.6 21.48 5.05 21.94L6.11 20.88C5.98 20.75 5.87 20.55 5.81 20.09C5.75 19.61 5.75 18.96 5.75 18L4.25 18ZM18.25 18C18.25 18.96 18.24 19.61 18.18 20.09C18.12 20.55 18.01 20.75 17.88 20.88L18.94 21.94C19.39 21.48 19.58 20.92 19.66 20.29C19.75 19.68 19.75 18.92 19.75 18L18.25 18ZM15 22.75C15.92 22.75 16.68 22.75 17.29 22.66C17.92 22.58 18.49 22.4 18.94 21.94L17.88 20.88C17.75 21.01 17.55 21.12 17.09 21.18C16.61 21.24 15.96 21.25 15 21.25L15 22.75ZM7 5.75C7.21 5.75 7.42 5.76 7.62 5.79L7.84 4.31C7.56 4.27 7.28 4.25 7 4.25L7 5.75ZM12 1.25C10.9 1.25 9.83 1.59 8.94 2.23C8.04 2.87 7.37 3.77 7.02 4.81L8.44 5.29C8.69 4.55 9.17 3.9 9.81 3.45C10.45 2.99 11.21 2.75 12 2.75L12 1.25ZM7.02 4.81C6.84 5.35 6.74 5.92 6.75 6.5L8.25 6.5C8.25 6.07 8.31 5.67 8.44 5.29L7.02 4.81ZM17 4.25C16.71 4.25 16.43 4.27 16.15 4.31L16.37 5.79C16.58 5.76 16.79 5.75 17 5.75L17 4.25ZM12 2.75C12.78 2.75 13.54 2.99 14.18 3.45C14.82 3.9 15.29 4.55 15.55 5.29L16.97 4.81C16.61 3.77 15.95 2.87 15.05 2.23C14.16 1.59 13.09 1.25 12 1.25L12 2.75ZM15.55 5.29C15.68 5.67 15.75 6.07 15.75 6.5L17.25 6.5C17.25 5.91 17.15 5.34 16.97 4.81L15.55 5.29L15.55 5.29ZM5.75 18L5.75 14.58L4.25 14.58L4.25 18L5.75 18ZM5.29 13.89C4.54 13.56 3.89 13.02 3.44 12.32C2.99 11.63 2.75 10.82 2.75 10L1.25 10C1.25 11.11 1.57 12.21 2.18 13.14C2.8 14.08 3.67 14.82 4.7 15.27L5.29 13.89ZM18.25 14.58L18.25 18L19.75 18L19.75 14.58L18.25 14.58ZM21.25 10C21.25 10.82 21 11.63 20.55 12.32C20.1 13.02 19.45 13.56 18.7 13.89L19.29 15.27C20.32 14.82 21.19 14.08 21.81 13.14C22.42 12.21 22.75 11.11 22.75 10L21.25 10ZM15.75 6.5L15.75 7L17.25 7L17.25 6.5L15.75 6.5ZM6.75 6.5L6.75 7L8.25 7L8.25 6.5L6.75 6.5Z" fill="#1F1711" fill-opacity="1.000000" fill-rule="nonzero"/>
		<g opacity="0.700000">
			<path id="Vector" d="M12 9.99L11.48 10.53C11.62 10.67 11.8 10.74 12 10.74C12.19 10.74 12.37 10.67 12.51 10.53L12 9.99ZM11.48 13.06C11.06 12.75 10.6 12.37 10.25 11.97C9.89 11.54 9.75 11.21 9.75 11L8.25 11C8.25 11.77 8.69 12.45 9.12 12.95C9.57 13.47 10.13 13.93 10.59 14.27L11.48 13.06ZM9.75 11C9.75 10.42 10.01 10.17 10.24 10.09C10.49 10 10.95 10.03 11.48 10.53L12.51 9.45C11.69 8.66 10.65 8.35 9.74 8.67C8.81 9 8.25 9.9 8.25 11L9.75 11ZM13.39 14.27C13.85 13.93 14.42 13.47 14.87 12.95C15.3 12.45 15.75 11.77 15.75 11L14.25 11C14.25 11.21 14.1 11.54 13.74 11.97C13.39 12.37 12.93 12.75 12.51 13.06L13.4 14.27L13.39 14.27ZM15.75 11C15.75 9.9 15.18 9 14.25 8.67C13.34 8.35 12.3 8.66 11.48 9.45L12.51 10.53C13.04 10.03 13.5 10 13.75 10.09C13.98 10.17 14.25 10.42 14.25 11L15.75 11ZM10.6 14.27C10.96 14.54 11.38 14.88 12 14.88L12 13.38C11.97 13.38 11.96 13.38 11.9 13.35C11.76 13.26 11.61 13.16 11.48 13.06L10.59 14.27L10.6 14.27ZM12.51 13.06C12.38 13.16 12.23 13.26 12.09 13.35C12.04 13.38 12.02 13.38 12 13.38L12 14.88C12.61 14.88 13.03 14.54 13.39 14.27L12.51 13.06Z" fill="#1F1711" fill-opacity="1.000000" fill-rule="nonzero"/>
		</g>
		<g opacity="0.700000">
			<path id="Vector" d="M5 18L19 18" stroke="#1F1711" stroke-opacity="1.000000" stroke-width="1.500000" stroke-linejoin="round" stroke-linecap="round"/>
		</g>
	</g>
</svg>
