<svg width="24.000000" height="24.000000" viewBox="0 0 24 24" fill="none" xmlns="http://www.w3.org/2000/svg" xmlns:xlink="http://www.w3.org/1999/xlink">
	<desc>
			Created with Pixso.
	</desc>
	<defs>
		<clipPath id="clip41_375">
			<rect id="carbon:location" width="24.000000" height="24.000000" fill="white" fill-opacity="0"/>
		</clipPath>
	</defs>
	<rect id="carbon:location" width="24.000000" height="24.000000" fill="#FFFFFF" fill-opacity="0"/>
	<g clip-path="url(#clip41_375)">
		<path id="Vector" d="M12 13.5C11.25 13.5 10.53 13.28 9.91 12.86C9.3 12.45 8.81 11.87 8.53 11.18C8.25 10.5 8.17 9.74 8.32 9.01C8.46 8.29 8.82 7.62 9.34 7.09C9.87 6.57 10.54 6.21 11.26 6.07C11.99 5.92 12.74 6 13.43 6.28C14.12 6.56 14.7 7.04 15.11 7.66C15.53 8.28 15.75 9 15.75 9.75C15.74 10.74 15.35 11.69 14.65 12.4C13.94 13.1 12.99 13.49 12 13.5ZM12 7.5C11.55 7.5 11.11 7.63 10.75 7.87C10.37 8.12 10.09 8.47 9.92 8.88C9.75 9.29 9.7 9.75 9.79 10.18C9.88 10.62 10.09 11.02 10.4 11.34C10.72 11.65 11.12 11.87 11.56 11.95C11.99 12.04 12.45 11.99 12.86 11.82C13.27 11.65 13.62 11.37 13.87 11C14.11 10.62 14.25 10.19 14.25 9.75C14.24 9.15 14.01 8.58 13.59 8.16C13.16 7.73 12.59 7.5 12 7.5Z" fill="#FFF9F4" fill-opacity="1.000000" fill-rule="nonzero"/>
		<path id="Vector" d="M12 22.5L5.67 15.03C5.58 14.92 5.49 14.81 5.41 14.7C4.33 13.27 3.74 11.53 3.75 9.75C3.75 7.56 4.61 5.46 6.16 3.91C7.71 2.36 9.81 1.5 12 1.5C14.18 1.5 16.28 2.36 17.83 3.91C19.38 5.46 20.25 7.56 20.25 9.75C20.25 11.53 19.66 13.27 18.58 14.69L18.58 14.7C18.58 14.7 18.36 14.99 18.32 15.03L12 22.5ZM6.6 13.79C6.61 13.79 6.78 14.02 6.82 14.07L12 20.18L17.18 14.06C17.21 14.02 17.39 13.79 17.39 13.79C18.27 12.63 18.75 11.21 18.75 9.75C18.75 7.95 18.03 6.24 16.77 4.97C15.5 3.71 13.79 3 12 3C10.2 3 8.49 3.71 7.22 4.97C5.96 6.24 5.25 7.95 5.25 9.75C5.24 11.21 5.72 12.63 6.6 13.79Z" fill="#FFF9F4" fill-opacity="1.000000" fill-rule="nonzero"/>
	</g>
</svg>
