<svg width="241" height="83" viewBox="0 0 241 83" fill="none" xmlns="http://www.w3.org/2000/svg">
<path d="M130.676 69.0932C127.946 66.7435 125.31 64.2349 122.77 61.5676C120.293 58.8368 117.975 56.0425 115.816 53.1847C113.72 50.3269 111.783 47.4373 110.005 44.516C108.29 41.5311 106.829 38.6098 105.623 35.752C103.464 38.1018 101.304 40.4833 99.1451 42.8965C97.0493 45.2463 95.1759 47.6278 93.5247 50.0411C91.8735 52.3909 90.5399 54.7724 89.5237 57.1856C88.4441 59.5354 87.9043 61.8852 87.9043 64.2349C87.9043 67.0292 88.3806 69.4425 89.3332 71.4747C90.2223 73.4435 91.429 75.0629 92.9531 76.333C94.4773 77.6032 96.2237 78.524 98.1925 79.0956C100.161 79.6672 102.193 79.9529 104.289 79.9529C108.481 79.9529 112.926 78.9686 117.626 76.9999C122.325 75.0311 126.675 72.3956 130.676 69.0932ZM118.864 12.6036C118.864 10.3809 118.356 8.79321 117.34 7.84061C116.387 6.8245 115.339 6.31644 114.196 6.31644C113.244 6.31644 112.228 6.63397 111.148 7.26905C110.132 7.90412 109.179 8.82497 108.29 10.0316C107.465 11.1747 106.766 12.5719 106.194 14.2231C105.623 15.8743 105.337 17.6842 105.337 19.6529C105.337 23.2728 106.004 27.115 107.337 31.1795C108.925 29.5283 110.418 27.9089 111.815 26.3212C113.212 24.7335 114.419 23.1776 115.435 21.6534C116.514 20.0657 117.34 18.5416 117.911 17.0809C118.547 15.5567 118.864 14.0643 118.864 12.6036ZM155.539 82.1439C155.539 82.3345 155.412 82.525 155.158 82.7155C154.904 82.906 154.523 83.0013 154.015 83.0013C150.205 81.7947 146.458 80.1117 142.774 77.9525C139.091 75.7297 135.503 73.1577 132.01 70.2364C129.597 72.0781 127.088 73.761 124.484 75.2852C121.881 76.8093 119.213 78.1112 116.483 79.1909C113.815 80.2705 111.116 81.0961 108.385 81.6676C105.718 82.2392 103.146 82.525 100.669 82.525C98.256 82.525 95.9697 82.1757 93.8105 81.4771C91.6512 80.842 89.7778 79.8577 88.1901 78.524C86.6024 77.1269 85.364 75.4122 84.4749 73.38C83.5223 71.3477 83.046 68.9662 83.046 66.2354C83.046 63.3141 83.7128 60.4563 85.0465 57.6619C86.3801 54.8041 88.0948 52.0098 90.1906 49.279C92.2863 46.5482 94.6043 43.8809 97.1446 41.2771C99.7484 38.6733 102.289 36.133 104.765 33.6563C102.924 28.7027 102.003 24.2254 102.003 20.2245C102.003 17.8747 102.416 15.7155 103.241 13.7468C104.13 11.778 105.242 10.0951 106.575 8.69795C107.909 7.3008 109.37 6.22118 110.957 5.45909C112.609 4.6335 114.165 4.2207 115.625 4.2207C117.34 4.2207 118.896 4.79227 120.293 5.9354C121.69 7.01501 122.389 8.82497 122.389 11.3653C122.389 12.9529 121.976 14.6041 121.15 16.3188C120.388 18.0335 119.34 19.8117 118.007 21.6534C116.737 23.4316 115.212 25.3051 113.434 27.2738C111.719 29.179 109.91 31.1477 108.004 33.1799C110.1 38.9591 113.212 44.8335 117.34 50.8032C121.531 56.7093 126.612 62.2345 132.582 67.3785C135.82 64.4572 138.424 61.2501 140.393 57.7572C142.362 54.2643 143.346 50.6127 143.346 46.8022C143.346 45.5321 143.156 44.2619 142.774 42.9918C142.457 41.6582 141.79 40.261 140.774 38.8003C140.774 38.6733 140.965 38.5463 141.346 38.4193C141.727 38.2288 142.076 38.1335 142.393 38.1335C143.283 38.1335 143.981 38.451 144.489 39.0861C145.061 39.6577 145.474 40.3563 145.728 41.1818C146.045 42.0074 146.236 42.8648 146.299 43.7539C146.426 44.5795 146.49 45.2463 146.49 45.7544C146.49 49.9458 145.315 54.0103 142.965 57.9477C140.679 61.8217 137.694 65.3781 134.01 68.6169C140.171 73.888 147.125 78.1748 154.873 81.4771C155.317 81.7311 155.539 81.9534 155.539 82.1439Z" fill="#FFA55C"/>
<path d="M19.24 48.1278C19.24 46.1438 19.112 44.4958 18.856 43.1838C18.632 41.8718 18.312 41.2158 17.896 41.2158C17.64 41.2158 17.4 41.4078 17.176 41.7918C16.952 42.1438 16.76 42.6558 16.6 43.3278C16.472 43.9678 16.36 44.7358 16.264 45.6318C16.2 46.4958 16.168 47.4398 16.168 48.4638C16.168 50.2878 16.296 52.2558 16.552 54.3678C16.808 56.4478 17.256 58.4638 17.896 60.4158C18.344 58.3678 18.68 56.2718 18.904 54.1278C19.128 51.9518 19.24 49.9518 19.24 48.1278ZM39.352 26.3358C39.352 26.4958 39.288 26.6238 39.16 26.7198C39.032 26.8158 38.872 26.9278 38.68 27.0558C37.72 27.6318 36.936 28.4318 36.328 29.4558C35.72 30.4798 35.224 31.5998 34.84 32.8158C34.488 34.0318 34.248 35.2798 34.12 36.5598C33.992 37.8078 33.928 38.9598 33.928 40.0158C33.928 40.7518 33.96 41.6638 34.024 42.7518C34.12 43.8078 34.216 44.9758 34.312 46.2558C34.44 47.5358 34.536 48.8958 34.6 50.3358C34.696 51.7438 34.744 53.1838 34.744 54.6558C34.744 56.7358 34.616 58.7518 34.36 60.7038C34.136 62.6558 33.672 64.3998 32.968 65.9358C32.296 67.4718 31.352 68.7038 30.136 69.6318C28.92 70.5598 27.336 71.0238 25.384 71.0238C24.488 71.0238 23.64 70.8478 22.84 70.4958C22.072 70.1758 21.352 69.7118 20.68 69.1038C20.04 68.4958 19.448 67.7918 18.904 66.9918C18.392 66.1918 17.928 65.3118 17.512 64.3518C17.096 65.4718 16.6 66.5118 16.024 67.4718C15.48 68.4318 14.872 69.2638 14.2 69.9678C13.528 70.6718 12.792 71.2158 11.992 71.5998C11.192 71.9838 10.344 72.1758 9.44799 72.1758C8.07199 72.1758 6.90399 71.8238 5.94399 71.1198C5.01599 70.4158 4.24799 69.4878 3.63999 68.3358C3.03199 67.2158 2.55199 65.9358 2.19999 64.4958C1.87999 63.0238 1.63999 61.5358 1.47999 60.0318C1.31999 58.4958 1.20799 57.0078 1.14399 55.5678C1.11199 54.0958 1.07999 52.7998 1.04799 51.6798C0.983991 49.6638 1.01599 47.7598 1.14399 45.9678C1.30399 44.1438 1.47999 42.5118 1.67199 41.0718C1.86399 39.5998 2.05599 38.3358 2.24799 37.2798C2.43999 36.2238 2.56799 35.4398 2.63199 34.9278C2.66399 34.7358 2.85599 34.6078 3.20799 34.5438C3.59199 34.4798 3.92799 34.4478 4.21599 34.4478C4.43999 34.4478 4.63199 34.4798 4.79199 34.5438C4.95199 34.5758 5.03199 34.6718 5.03199 34.8318C5.03199 35.0238 4.95199 35.3598 4.79199 35.8398C4.63199 36.2878 4.39199 37.1518 4.07199 38.4318C3.94399 39.0078 3.79999 39.8398 3.63999 40.9278C3.51199 41.9838 3.38399 43.1838 3.25599 44.5278C3.15999 45.8718 3.07999 47.3118 3.01599 48.8478C2.95199 50.3518 2.91999 51.8238 2.91999 53.2638C2.91999 54.3838 2.96799 55.6158 3.06399 56.9598C3.15999 58.2718 3.31999 59.5838 3.54399 60.8958C3.76799 62.1758 4.07199 63.4238 4.45599 64.6398C4.83999 65.8558 5.30399 66.9278 5.84799 67.8558C6.42399 68.7838 7.09599 69.5198 7.86399 70.0638C8.63199 70.6398 9.52799 70.9278 10.552 70.9278C11.32 70.9278 12.024 70.7358 12.664 70.3518C13.304 69.9678 13.896 69.4238 14.44 68.7198C14.984 68.0478 15.464 67.2478 15.88 66.3198C16.328 65.3918 16.728 64.3838 17.08 63.2958C16.344 61.2798 15.8 59.1358 15.448 56.8638C15.096 54.5918 14.92 52.4958 14.92 50.5758C14.92 49.1678 14.968 47.7758 15.064 46.3998C15.192 45.0238 15.368 43.7918 15.592 42.7038C15.816 41.6158 16.104 40.7358 16.456 40.0638C16.808 39.3918 17.224 39.0558 17.704 39.0558C18.088 39.0558 18.424 39.2958 18.712 39.7758C19.032 40.2558 19.288 40.9118 19.48 41.7438C19.704 42.5758 19.864 43.5678 19.96 44.7198C20.088 45.8398 20.152 47.0558 20.152 48.3678C20.152 50.4798 20.008 52.7038 19.72 55.0398C19.432 57.3438 18.984 59.5998 18.376 61.8078C18.792 62.9278 19.272 63.9678 19.816 64.9278C20.36 65.8558 20.968 66.6718 21.64 67.3758C22.344 68.0798 23.112 68.6238 23.944 69.0078C24.808 69.4238 25.752 69.6318 26.776 69.6318C28.184 69.6318 29.336 69.2798 30.232 68.5758C31.128 67.9038 31.832 66.9758 32.344 65.7918C32.856 64.5758 33.208 63.1838 33.4 61.6158C33.592 60.0158 33.688 58.3038 33.688 56.4798C33.688 54.8478 33.624 53.1678 33.496 51.4398C33.4 49.7118 33.288 47.9998 33.16 46.3038C33.032 44.5758 32.904 42.9118 32.776 41.3118C32.68 39.6798 32.632 38.1758 32.632 36.7998C32.632 35.8078 32.776 34.6558 33.064 33.3438C33.384 32.0318 33.8 30.7998 34.312 29.6478C34.856 28.4638 35.464 27.4718 36.136 26.6718C36.84 25.8398 37.576 25.4238 38.344 25.4238C38.568 25.4238 38.792 25.5358 39.016 25.7598C39.24 25.9518 39.352 26.1438 39.352 26.3358Z" fill="#FFF9F4"/>
<path d="M54.3396 58.2078C54.3396 57.7278 54.2596 57.3438 54.0996 57.0558C53.9396 56.7358 53.6836 56.5758 53.3316 56.5758C52.7876 56.5758 52.3716 56.8478 52.0836 57.3918C51.7956 57.9038 51.6676 58.5598 51.6996 59.3598C51.7956 61.0558 52.0996 62.4798 52.6116 63.6318C53.1556 62.8958 53.5716 62.0638 53.8596 61.1358C54.1796 60.2078 54.3396 59.2318 54.3396 58.2078ZM67.2996 58.1598C67.0756 58.6398 66.8356 59.1358 66.5796 59.6478C66.3236 60.1278 66.0356 60.6078 65.7156 61.0878C64.0836 63.5198 62.4356 65.3278 60.7716 66.5118C59.1076 67.6958 57.5556 68.2878 56.1156 68.2878C54.2916 68.2878 52.8996 67.4238 51.9396 65.6958C50.8196 66.8158 49.5556 67.6638 48.1476 68.2398C46.7716 68.8158 45.4116 69.1038 44.0676 69.1038C43.2676 69.1038 42.4996 68.9918 41.7636 68.7678C41.0596 68.5438 40.4516 68.2078 39.9396 67.7598C39.3956 67.2798 38.9636 66.6878 38.6436 65.9838C38.3236 65.2478 38.1636 64.3998 38.1636 63.4398C38.1636 62.2878 38.4356 61.1198 38.9796 59.9358C39.4916 58.7198 40.2116 57.6318 41.1396 56.6718C42.0996 55.6798 43.2196 54.8638 44.4996 54.2238C45.7796 53.5838 47.1716 53.2638 48.6756 53.2638C49.8916 53.2638 50.8356 53.4398 51.5076 53.7918C52.1796 54.1118 52.5156 54.4158 52.5156 54.7038C52.5156 54.8318 52.4516 54.9278 52.3236 54.9918C52.1956 55.0558 52.0836 55.0878 51.9876 55.0878C51.9556 55.0558 51.9236 55.0398 51.8916 55.0398H51.8436C51.4596 54.6878 51.0276 54.4158 50.5476 54.2238C50.0676 53.9998 49.3636 53.8878 48.4356 53.8878C47.1876 53.8878 46.0516 54.1598 45.0276 54.7038C44.0356 55.2158 43.1876 55.9038 42.4836 56.7678C41.7796 57.5998 41.2356 58.5278 40.8516 59.5518C40.4676 60.5758 40.2756 61.5838 40.2756 62.5758C40.2756 64.4958 40.7236 65.8878 41.6196 66.7518C42.5156 67.6158 43.6356 68.0478 44.9796 68.0478C46.0676 68.0478 47.2036 67.7758 48.3876 67.2318C49.5716 66.6878 50.6276 65.9198 51.5556 64.9278C51.0436 63.7758 50.7876 62.2718 50.7876 60.4158C50.7876 59.1998 51.0116 58.1438 51.4596 57.2478C51.9076 56.3518 52.5476 55.9038 53.3796 55.9038C54.5316 55.9038 55.1076 56.5758 55.1076 57.9198C55.1076 59.2638 54.9156 60.4798 54.5316 61.5678C54.1476 62.6238 53.6356 63.5838 52.9956 64.4478C53.8916 66.1118 55.1396 66.9438 56.7396 66.9438C57.9556 66.9438 59.2516 66.4318 60.6276 65.4078C62.0356 64.3838 63.4116 62.8958 64.7556 60.9438C65.0756 60.4638 65.3636 59.9678 65.6196 59.4558C65.8756 58.9438 66.1316 58.4318 66.3876 57.9198L67.2996 58.1598Z" fill="#FFF9F4"/>
<path d="M73.9667 36.7038C73.9667 34.8798 73.6627 33.4238 73.0547 32.3358C72.4787 31.2158 71.5027 30.6558 70.1267 30.6558C69.6467 30.6558 69.1987 30.8158 68.7827 31.1358C68.3987 31.4238 68.0627 31.8238 67.7747 32.3358C67.4867 32.8478 67.2627 33.4398 67.1027 34.1118C66.9427 34.7838 66.8627 35.5038 66.8627 36.2718C66.8627 38.3838 66.8787 40.3038 66.9107 42.0318C66.9427 43.7598 66.9747 45.3918 67.0067 46.9278C67.0707 48.4638 67.1347 49.9518 67.1987 51.3918C67.2627 52.8318 67.3267 54.3038 67.3907 55.8078C68.3187 54.5598 69.1827 53.1358 69.9827 51.5358C70.7827 49.9038 71.4707 48.2398 72.0467 46.5438C72.6547 44.8158 73.1187 43.1038 73.4387 41.4078C73.7907 39.7118 73.9667 38.1438 73.9667 36.7038ZM91.3427 58.1598C91.1187 58.6398 90.8787 59.1358 90.6227 59.6478C90.3987 60.1598 90.1107 60.6398 89.7587 61.0878C87.9987 63.5838 85.9987 65.5518 83.7587 66.9918C81.5187 68.3998 79.2947 69.1038 77.0867 69.1038C75.7107 69.1038 74.3987 68.7838 73.1507 68.1438C71.9027 67.5358 70.7987 66.5438 69.8387 65.1678C69.7107 65.0078 69.6467 64.8638 69.6467 64.7358C69.6467 64.4478 69.8387 64.3038 70.2227 64.3038C70.2547 64.3038 70.3667 64.3358 70.5587 64.3998C70.8147 64.3998 71.1027 64.4958 71.4227 64.6878C71.7747 64.8478 72.2707 64.9278 72.9107 64.9278C73.9027 64.9278 74.8307 64.7518 75.6947 64.3998C76.5587 64.0478 77.2947 63.5998 77.9027 63.0558C78.5427 62.4798 79.0387 61.8398 79.3907 61.1358C79.7427 60.3998 79.9187 59.6478 79.9187 58.8798C79.9187 57.9198 79.6627 57.0878 79.1507 56.3838C78.6707 55.6798 77.8387 55.3278 76.6547 55.3278C75.4387 55.3278 74.3187 55.7598 73.2947 56.6238C72.2707 57.4558 71.3427 58.4798 70.5107 59.6958C69.7107 60.8798 69.0227 62.1438 68.4467 63.4878C67.8707 64.7998 67.4387 65.9518 67.1507 66.9438C66.9907 67.4878 66.8467 67.8238 66.7187 67.9518C66.5907 68.0798 66.4467 68.1438 66.2867 68.1438C65.9347 68.1438 65.7747 67.8078 65.8067 67.1358C65.8067 66.8478 65.8227 66.4958 65.8547 66.0798C65.8867 65.6638 65.9187 65.2158 65.9507 64.7358C65.9507 64.2558 65.9667 63.7758 65.9987 63.2958C66.0307 62.7838 66.0467 62.3198 66.0467 61.9038C66.0467 60.4638 66.0147 58.8158 65.9507 56.9598C65.8867 55.0718 65.8067 53.1358 65.7107 51.1518C65.6147 49.1358 65.5347 47.1358 65.4707 45.1518C65.4067 43.1678 65.3747 41.3438 65.3747 39.6798C65.3747 38.3678 65.4707 37.1038 65.6627 35.8878C65.8547 34.6398 66.1587 33.5518 66.5747 32.6238C66.9907 31.6638 67.5187 30.9118 68.1587 30.3678C68.7987 29.7918 69.5507 29.5038 70.4147 29.5038C71.3107 29.5038 72.0627 29.6638 72.6707 29.9838C73.3107 30.2718 73.8227 30.7038 74.2067 31.2798C74.5907 31.8238 74.8627 32.4958 75.0227 33.2958C75.2147 34.0638 75.3107 34.9118 75.3107 35.8398C75.3107 37.4398 75.0867 39.1998 74.6387 41.1198C74.1907 43.0078 73.5987 44.9118 72.8627 46.8318C72.1267 48.7518 71.2787 50.6078 70.3187 52.3998C69.3907 54.1598 68.4307 55.6958 67.4387 57.0078C67.5027 57.9678 67.5347 58.9598 67.5347 59.9838C67.5667 61.0078 67.6147 62.0958 67.6787 63.2478C68.4787 61.5198 69.3587 60.0318 70.3187 58.7838C70.7347 58.2398 71.1987 57.7118 71.7107 57.1998C72.2547 56.6558 72.8147 56.1758 73.3907 55.7598C73.9987 55.3438 74.6387 55.0078 75.3107 54.7518C76.0147 54.4958 76.7507 54.3678 77.5187 54.3678C78.7347 54.3678 79.7907 54.6718 80.6867 55.2798C81.5827 55.8878 82.0307 56.8638 82.0307 58.2078C82.0307 59.4878 81.7107 60.5758 81.0707 61.4718C80.4627 62.3678 79.6947 63.1198 78.7667 63.7278C77.8387 64.3038 76.8467 64.7358 75.7907 65.0238C74.7347 65.3118 73.7747 65.4878 72.9107 65.5518C72.8467 65.5518 72.8147 65.5678 72.8147 65.5998C72.8147 65.6638 72.8627 65.7598 72.9587 65.8878C73.5987 66.6238 74.3187 67.1518 75.1187 67.4718C75.9187 67.7918 76.7507 67.9518 77.6147 67.9518C78.6707 67.9518 79.7427 67.7598 80.8307 67.3758C81.9187 66.9598 82.9587 66.4318 83.9507 65.7918C84.9427 65.1198 85.8547 64.3678 86.6867 63.5358C87.5507 62.6718 88.2547 61.8078 88.7987 60.9438C89.1187 60.4638 89.4067 59.9678 89.6627 59.4558C89.9187 58.9438 90.1747 58.4318 90.4307 57.9198L91.3427 58.1598Z" fill="#FFF9F4"/>
<path d="M98.1096 55.1838C98.1096 54.3198 97.8856 53.6158 97.4376 53.0718C97.0216 52.4958 96.3336 52.2078 95.3736 52.2078C94.8616 52.2078 94.3976 52.3678 93.9816 52.6878C93.5656 53.0078 93.2136 53.4398 92.9256 53.9838C92.6376 54.4958 92.4136 55.1038 92.2536 55.8078C92.0936 56.5118 92.0136 57.2478 92.0136 58.0158C92.0136 59.2318 92.1416 60.3198 92.3976 61.2798C92.6856 62.2078 93.0856 63.0238 93.5976 63.7278C94.2696 63.1838 94.8776 62.5598 95.4216 61.8558C95.9656 61.1518 96.4296 60.4158 96.8136 59.6478C97.2296 58.8798 97.5496 58.1118 97.7736 57.3438C97.9976 56.5758 98.1096 55.8558 98.1096 55.1838ZM110.254 58.1598C110.03 58.6398 109.79 59.1358 109.534 59.6478C109.31 60.1278 109.022 60.6078 108.67 61.0878C107.102 63.3278 105.31 65.0238 103.294 66.1758C101.31 67.2958 99.4056 67.8558 97.5816 67.8558C96.5576 67.8558 95.5976 67.6798 94.7016 67.3278C93.8376 66.9758 93.0856 66.4478 92.4456 65.7438C91.8056 65.0398 91.2936 64.1598 90.9096 63.1038C90.5256 62.0478 90.3336 60.7998 90.3336 59.3598C90.3336 58.3998 90.4776 57.4398 90.7656 56.4798C91.0536 55.5198 91.4376 54.6558 91.9176 53.8878C92.4296 53.1198 93.0056 52.4958 93.6456 52.0158C94.3176 51.5358 95.0216 51.2958 95.7576 51.2958C96.9416 51.2958 97.8056 51.6478 98.3496 52.3518C98.8936 53.0238 99.1656 53.8878 99.1656 54.9438C99.1656 56.3838 98.7176 57.9518 97.8216 59.6478C96.9576 61.3118 95.7096 62.8638 94.0776 64.3038C95.2936 65.6798 96.8616 66.3678 98.7816 66.3678C100.222 66.3678 101.726 65.9358 103.294 65.0718C104.862 64.1758 106.334 62.7998 107.71 60.9438C108.062 60.4958 108.35 60.0158 108.574 59.5038C108.83 58.9598 109.086 58.4318 109.342 57.9198L110.254 58.1598Z" fill="#FFF9F4"/>
<path d="M151.839 46.0638C150.655 46.0638 149.519 46.1918 148.431 46.4478C147.375 46.7038 146.431 47.0078 145.599 47.3598C144.799 47.7118 144.143 48.0798 143.631 48.4638C143.151 48.8478 142.911 49.1838 142.911 49.4718C142.911 49.8558 143.359 50.0478 144.255 50.0478C145.791 50.0478 147.247 49.6798 148.623 48.9438C150.031 48.2078 151.295 47.2478 152.415 46.0638H151.839ZM165.807 53.2638C165.807 54.8318 165.359 56.5278 164.463 58.3518C163.599 60.1758 162.399 61.9838 160.863 63.7758C159.327 65.5678 157.503 67.2958 155.391 68.9598C153.279 70.6238 151.007 72.0958 148.575 73.3758C146.143 74.6558 143.583 75.6638 140.895 76.3998C138.207 77.1678 135.519 77.5518 132.831 77.5518C132.383 77.5518 131.887 77.5358 131.343 77.5038C130.831 77.4718 130.351 77.3918 129.903 77.2638C129.455 77.1678 129.071 76.9918 128.751 76.7358C128.431 76.5118 128.271 76.1918 128.271 75.7758C128.271 75.1998 128.559 74.6398 129.135 74.0958C129.711 73.5838 130.447 73.1038 131.343 72.6558C132.239 72.2078 133.215 71.8078 134.271 71.4558C135.327 71.1038 136.335 70.7998 137.295 70.5438C138.287 70.2878 139.151 70.0798 139.887 69.9198C140.623 69.7918 141.119 69.7278 141.375 69.7278C141.567 69.7278 141.711 69.7758 141.807 69.8718C141.903 69.9678 141.951 70.0638 141.951 70.1598C141.951 70.3198 141.871 70.3998 141.711 70.3998H141.087C140.255 70.3998 139.199 70.5598 137.919 70.8798C136.639 71.1998 135.391 71.5998 134.175 72.0798C132.959 72.5598 131.919 73.0878 131.055 73.6638C130.191 74.2718 129.759 74.8318 129.759 75.3438C129.759 75.6958 129.871 75.9678 130.095 76.1598C130.351 76.3838 130.655 76.5598 131.007 76.6878C131.359 76.8158 131.727 76.8958 132.111 76.9278C132.495 76.9918 132.831 77.0238 133.119 77.0238C135.391 77.0238 137.711 76.6398 140.079 75.8718C142.479 75.1038 144.799 74.0798 147.039 72.7998C149.311 71.5518 151.439 70.0958 153.423 68.4318C155.439 66.7998 157.199 65.1038 158.703 63.3438C160.207 61.5518 161.391 59.7758 162.255 58.0158C163.119 56.2238 163.551 54.5598 163.551 53.0238C163.551 51.1358 162.767 49.5678 161.199 48.3198C159.663 47.0398 157.119 46.3038 153.567 46.1118C152.127 47.4558 150.543 48.5438 148.815 49.3758C147.119 50.2078 145.391 50.6238 143.631 50.6238C142.383 50.6238 141.759 50.3198 141.759 49.7118C141.759 49.3278 142.015 48.8958 142.527 48.4158C143.071 47.9038 143.807 47.4238 144.735 46.9758C145.695 46.5278 146.831 46.1598 148.143 45.8718C149.455 45.5518 150.895 45.3918 152.463 45.3918H153.039C154.095 44.1438 154.943 42.7838 155.583 41.3118C156.223 39.8078 156.543 38.3358 156.543 36.8958C156.543 35.9358 156.367 35.0238 156.015 34.1598C155.695 33.2638 155.151 32.4958 154.383 31.8558C153.647 31.2158 152.671 30.7038 151.455 30.3198C150.271 29.9358 148.831 29.7438 147.135 29.7438C145.983 29.7438 144.383 29.9038 142.335 30.2238C140.319 30.5438 138.127 31.0398 135.759 31.7118C133.423 32.3518 131.039 33.1678 128.607 34.1598C126.175 35.1518 123.967 36.3038 121.983 37.6158C119.999 38.9278 118.383 40.4158 117.135 42.0798C115.887 43.7438 115.263 45.5838 115.263 47.5998C115.263 47.8558 115.215 48.0798 115.119 48.2718C115.023 48.4318 114.927 48.5118 114.831 48.5118C114.703 48.5118 114.607 48.3838 114.543 48.1278C114.447 47.8398 114.399 47.3758 114.399 46.7358C114.687 44.6558 115.535 42.7678 116.943 41.0718C118.351 39.3758 120.095 37.8718 122.175 36.5598C124.223 35.2158 126.479 34.0638 128.943 33.1038C131.407 32.1438 133.839 31.3598 136.239 30.7518C138.671 30.1118 140.927 29.6478 143.007 29.3598C145.119 29.0398 146.847 28.8798 148.191 28.8798C150.143 28.8798 151.791 29.0718 153.135 29.4558C154.511 29.8078 155.631 30.3038 156.495 30.9438C157.359 31.5518 157.983 32.2878 158.367 33.1518C158.751 34.0158 158.943 34.9278 158.943 35.8878C158.943 37.4558 158.511 39.0878 157.647 40.7838C156.815 42.4478 155.679 43.9998 154.239 45.4398C156.287 45.5358 158.047 45.8078 159.519 46.2558C160.991 46.6718 162.191 47.2318 163.119 47.9358C164.047 48.6078 164.719 49.4078 165.135 50.3358C165.583 51.2318 165.807 52.2078 165.807 53.2638ZM140.367 65.8878C140.367 66.3358 140.335 66.6558 140.271 66.8478C140.207 67.0398 140.031 67.1358 139.743 67.1358C139.103 67.1998 138.783 66.5598 138.783 65.2158C138.751 60.7998 138.703 56.7678 138.639 53.1198C138.607 49.4718 138.559 46.3198 138.495 43.6638C138.463 40.9758 138.431 38.8478 138.399 37.2798C138.367 35.7118 138.351 34.8158 138.351 34.5918C138.351 34.3358 138.431 34.1598 138.591 34.0638C138.751 33.9678 138.943 33.8878 139.167 33.8238C139.423 33.8238 139.615 33.9038 139.743 34.0638C139.903 34.2238 139.983 34.4158 139.983 34.6398C139.983 37.1998 139.999 39.8398 140.031 42.5598C140.063 45.2478 140.095 47.9358 140.127 50.6238C140.191 53.3118 140.239 55.9518 140.271 58.5438C140.335 61.1358 140.367 63.5838 140.367 65.8878Z" fill="#FFF9F4"/>
<path d="M184.465 58.2078C184.465 57.7278 184.385 57.3438 184.225 57.0558C184.065 56.7358 183.809 56.5758 183.457 56.5758C182.913 56.5758 182.497 56.8478 182.209 57.3918C181.921 57.9038 181.793 58.5598 181.825 59.3598C181.921 61.0558 182.225 62.4798 182.737 63.6318C183.281 62.8958 183.697 62.0638 183.985 61.1358C184.305 60.2078 184.465 59.2318 184.465 58.2078ZM197.425 58.1598C197.201 58.6398 196.961 59.1358 196.705 59.6478C196.449 60.1278 196.161 60.6078 195.841 61.0878C194.209 63.5198 192.561 65.3278 190.897 66.5118C189.233 67.6958 187.681 68.2878 186.241 68.2878C184.417 68.2878 183.025 67.4238 182.065 65.6958C180.945 66.8158 179.681 67.6638 178.273 68.2398C176.897 68.8158 175.537 69.1038 174.193 69.1038C173.393 69.1038 172.625 68.9918 171.889 68.7678C171.185 68.5438 170.577 68.2078 170.065 67.7598C169.521 67.2798 169.089 66.6878 168.769 65.9838C168.449 65.2478 168.289 64.3998 168.289 63.4398C168.289 62.2878 168.561 61.1198 169.105 59.9358C169.617 58.7198 170.337 57.6318 171.265 56.6718C172.225 55.6798 173.345 54.8638 174.625 54.2238C175.905 53.5838 177.297 53.2638 178.801 53.2638C180.017 53.2638 180.961 53.4398 181.633 53.7918C182.305 54.1118 182.641 54.4158 182.641 54.7038C182.641 54.8318 182.577 54.9278 182.449 54.9918C182.321 55.0558 182.209 55.0878 182.113 55.0878C182.081 55.0558 182.049 55.0398 182.017 55.0398H181.969C181.585 54.6878 181.153 54.4158 180.673 54.2238C180.193 53.9998 179.489 53.8878 178.561 53.8878C177.313 53.8878 176.177 54.1598 175.153 54.7038C174.161 55.2158 173.313 55.9038 172.609 56.7678C171.905 57.5998 171.361 58.5278 170.977 59.5518C170.593 60.5758 170.401 61.5838 170.401 62.5758C170.401 64.4958 170.849 65.8878 171.745 66.7518C172.641 67.6158 173.761 68.0478 175.105 68.0478C176.193 68.0478 177.329 67.7758 178.513 67.2318C179.697 66.6878 180.753 65.9198 181.681 64.9278C181.169 63.7758 180.913 62.2718 180.913 60.4158C180.913 59.1998 181.137 58.1438 181.585 57.2478C182.033 56.3518 182.673 55.9038 183.505 55.9038C184.657 55.9038 185.233 56.5758 185.233 57.9198C185.233 59.2638 185.041 60.4798 184.657 61.5678C184.273 62.6238 183.761 63.5838 183.121 64.4478C184.017 66.1118 185.265 66.9438 186.865 66.9438C188.081 66.9438 189.377 66.4318 190.753 65.4078C192.161 64.3838 193.537 62.8958 194.881 60.9438C195.201 60.4638 195.489 59.9678 195.745 59.4558C196.001 58.9438 196.257 58.4318 196.513 57.9198L197.425 58.1598Z" fill="#FFF9F4"/>
<path d="M204.092 36.7038C204.092 34.8798 203.788 33.4238 203.18 32.3358C202.604 31.2158 201.628 30.6558 200.252 30.6558C199.772 30.6558 199.324 30.8158 198.908 31.1358C198.524 31.4238 198.188 31.8238 197.9 32.3358C197.612 32.8478 197.388 33.4398 197.228 34.1118C197.068 34.7838 196.988 35.5038 196.988 36.2718C196.988 38.3838 197.004 40.3038 197.036 42.0318C197.068 43.7598 197.1 45.3918 197.132 46.9278C197.196 48.4638 197.26 49.9518 197.324 51.3918C197.388 52.8318 197.452 54.3038 197.516 55.8078C198.444 54.5598 199.308 53.1358 200.108 51.5358C200.908 49.9038 201.596 48.2398 202.172 46.5438C202.78 44.8158 203.244 43.1038 203.564 41.4078C203.916 39.7118 204.092 38.1438 204.092 36.7038ZM221.468 58.1598C221.244 58.6398 221.004 59.1358 220.748 59.6478C220.524 60.1598 220.236 60.6398 219.884 61.0878C218.124 63.5838 216.124 65.5518 213.884 66.9918C211.644 68.3998 209.42 69.1038 207.212 69.1038C205.836 69.1038 204.524 68.7838 203.276 68.1438C202.028 67.5358 200.924 66.5438 199.964 65.1678C199.836 65.0078 199.772 64.8638 199.772 64.7358C199.772 64.4478 199.964 64.3038 200.348 64.3038C200.38 64.3038 200.492 64.3358 200.684 64.3998C200.94 64.3998 201.228 64.4958 201.548 64.6878C201.9 64.8478 202.396 64.9278 203.036 64.9278C204.028 64.9278 204.956 64.7518 205.82 64.3998C206.684 64.0478 207.42 63.5998 208.028 63.0558C208.668 62.4798 209.164 61.8398 209.516 61.1358C209.868 60.3998 210.044 59.6478 210.044 58.8798C210.044 57.9198 209.788 57.0878 209.276 56.3838C208.796 55.6798 207.964 55.3278 206.78 55.3278C205.564 55.3278 204.444 55.7598 203.42 56.6238C202.396 57.4558 201.468 58.4798 200.636 59.6958C199.836 60.8798 199.148 62.1438 198.572 63.4878C197.996 64.7998 197.564 65.9518 197.276 66.9438C197.116 67.4878 196.972 67.8238 196.844 67.9518C196.716 68.0798 196.572 68.1438 196.412 68.1438C196.06 68.1438 195.9 67.8078 195.932 67.1358C195.932 66.8478 195.948 66.4958 195.98 66.0798C196.012 65.6638 196.044 65.2158 196.076 64.7358C196.076 64.2558 196.092 63.7758 196.124 63.2958C196.156 62.7838 196.172 62.3198 196.172 61.9038C196.172 60.4638 196.14 58.8158 196.076 56.9598C196.012 55.0718 195.932 53.1358 195.836 51.1518C195.74 49.1358 195.66 47.1358 195.596 45.1518C195.532 43.1678 195.5 41.3438 195.5 39.6798C195.5 38.3678 195.596 37.1038 195.788 35.8878C195.98 34.6398 196.284 33.5518 196.7 32.6238C197.116 31.6638 197.644 30.9118 198.284 30.3678C198.924 29.7918 199.676 29.5038 200.54 29.5038C201.436 29.5038 202.188 29.6638 202.796 29.9838C203.436 30.2718 203.948 30.7038 204.332 31.2798C204.716 31.8238 204.988 32.4958 205.148 33.2958C205.34 34.0638 205.436 34.9118 205.436 35.8398C205.436 37.4398 205.212 39.1998 204.764 41.1198C204.316 43.0078 203.724 44.9118 202.988 46.8318C202.252 48.7518 201.404 50.6078 200.444 52.3998C199.516 54.1598 198.556 55.6958 197.564 57.0078C197.628 57.9678 197.66 58.9598 197.66 59.9838C197.692 61.0078 197.74 62.0958 197.804 63.2478C198.604 61.5198 199.484 60.0318 200.444 58.7838C200.86 58.2398 201.324 57.7118 201.836 57.1998C202.38 56.6558 202.94 56.1758 203.516 55.7598C204.124 55.3438 204.764 55.0078 205.436 54.7518C206.14 54.4958 206.876 54.3678 207.644 54.3678C208.86 54.3678 209.916 54.6718 210.812 55.2798C211.708 55.8878 212.156 56.8638 212.156 58.2078C212.156 59.4878 211.836 60.5758 211.196 61.4718C210.588 62.3678 209.82 63.1198 208.892 63.7278C207.964 64.3038 206.972 64.7358 205.916 65.0238C204.86 65.3118 203.9 65.4878 203.036 65.5518C202.972 65.5518 202.94 65.5678 202.94 65.5998C202.94 65.6638 202.988 65.7598 203.084 65.8878C203.724 66.6238 204.444 67.1518 205.244 67.4718C206.044 67.7918 206.876 67.9518 207.74 67.9518C208.796 67.9518 209.868 67.7598 210.956 67.3758C212.044 66.9598 213.084 66.4318 214.076 65.7918C215.068 65.1198 215.98 64.3678 216.812 63.5358C217.676 62.6718 218.38 61.8078 218.924 60.9438C219.244 60.4638 219.532 59.9678 219.788 59.4558C220.044 58.9438 220.3 58.4318 220.556 57.9198L221.468 58.1598Z" fill="#FFF9F4"/>
<path d="M228.235 55.1838C228.235 54.3198 228.011 53.6158 227.563 53.0718C227.147 52.4958 226.459 52.2078 225.499 52.2078C224.987 52.2078 224.523 52.3678 224.107 52.6878C223.691 53.0078 223.339 53.4398 223.051 53.9838C222.763 54.4958 222.539 55.1038 222.379 55.8078C222.219 56.5118 222.139 57.2478 222.139 58.0158C222.139 59.2318 222.267 60.3198 222.523 61.2798C222.811 62.2078 223.211 63.0238 223.723 63.7278C224.395 63.1838 225.003 62.5598 225.547 61.8558C226.091 61.1518 226.555 60.4158 226.939 59.6478C227.355 58.8798 227.675 58.1118 227.899 57.3438C228.123 56.5758 228.235 55.8558 228.235 55.1838ZM240.379 58.1598C240.155 58.6398 239.915 59.1358 239.659 59.6478C239.435 60.1278 239.147 60.6078 238.795 61.0878C237.227 63.3278 235.435 65.0238 233.419 66.1758C231.435 67.2958 229.531 67.8558 227.707 67.8558C226.683 67.8558 225.723 67.6798 224.827 67.3278C223.963 66.9758 223.211 66.4478 222.571 65.7438C221.931 65.0398 221.419 64.1598 221.035 63.1038C220.651 62.0478 220.459 60.7998 220.459 59.3598C220.459 58.3998 220.603 57.4398 220.891 56.4798C221.179 55.5198 221.563 54.6558 222.043 53.8878C222.555 53.1198 223.131 52.4958 223.771 52.0158C224.443 51.5358 225.147 51.2958 225.883 51.2958C227.067 51.2958 227.931 51.6478 228.475 52.3518C229.019 53.0238 229.291 53.8878 229.291 54.9438C229.291 56.3838 228.843 57.9518 227.947 59.6478C227.083 61.3118 225.835 62.8638 224.203 64.3038C225.419 65.6798 226.987 66.3678 228.907 66.3678C230.347 66.3678 231.851 65.9358 233.419 65.0718C234.987 64.1758 236.459 62.7998 237.835 60.9438C238.187 60.4958 238.475 60.0158 238.699 59.5038C238.955 58.9598 239.211 58.4318 239.467 57.9198L240.379 58.1598Z" fill="#FFF9F4"/>
</svg>
