<svg width="18.884033" height="18.916016" viewBox="0 0 18.884 18.916" fill="none" xmlns="http://www.w3.org/2000/svg" xmlns:xlink="http://www.w3.org/1999/xlink">
	<desc>
			Created with Pixso.
	</desc>
	<defs/>
	<path id="Vector" d="M13.44 4.45C13.44 4.19 13.54 3.93 13.73 3.75C13.92 3.56 14.17 3.45 14.44 3.45C14.7 3.45 14.96 3.56 15.14 3.75C15.33 3.93 15.44 4.19 15.44 4.45C15.44 4.72 15.33 4.97 15.14 5.16C14.96 5.35 14.7 5.45 14.44 5.45C14.17 5.45 13.92 5.35 13.73 5.16C13.54 4.97 13.44 4.72 13.44 4.45Z" fill="#CEAAD0" fill-opacity="1.000000" fill-rule="nonzero"/>
	<path id="Vector" d="M9.44 4.7C8.18 4.7 6.97 5.2 6.08 6.1C5.19 6.99 4.69 8.19 4.69 9.45C4.69 10.71 5.19 11.92 6.08 12.81C6.97 13.7 8.18 14.2 9.44 14.2C10.7 14.2 11.9 13.7 12.8 12.81C13.69 11.92 14.19 10.71 14.19 9.45C14.19 8.19 13.69 6.99 12.8 6.1C11.9 5.2 10.7 4.7 9.44 4.7ZM6.19 9.45C6.19 8.59 6.53 7.77 7.14 7.16C7.75 6.55 8.57 6.2 9.44 6.2C10.3 6.2 11.13 6.55 11.74 7.16C12.34 7.77 12.69 8.59 12.69 9.45C12.69 10.32 12.34 11.14 11.74 11.75C11.13 12.36 10.3 12.7 9.44 12.7C8.57 12.7 7.75 12.36 7.14 11.75C6.53 11.14 6.19 10.32 6.19 9.45Z" fill="#CEAAD0" fill-opacity="1.000000" fill-rule="evenodd"/>
	<path id="Vector" d="M14.7 0.29C11.2 -0.1 7.67 -0.1 4.18 0.29C2.17 0.51 0.54 2.1 0.31 4.12C-0.11 7.66 -0.11 11.24 0.31 14.79C0.54 16.81 2.17 18.39 4.18 18.62C7.67 19.01 11.2 19.01 14.7 18.62C16.71 18.39 18.33 16.81 18.57 14.79C18.98 11.24 18.98 7.66 18.57 4.12C18.33 2.1 16.71 0.51 14.7 0.29ZM4.34 1.78C7.73 1.4 11.14 1.4 14.53 1.78C15.86 1.93 16.92 2.97 17.08 4.29C17.48 7.72 17.48 11.18 17.08 14.61C17 15.26 16.7 15.86 16.24 16.31C15.78 16.77 15.17 17.06 14.53 17.13C11.14 17.5 7.73 17.5 4.34 17.13C3.7 17.06 3.1 16.77 2.63 16.31C2.17 15.86 1.88 15.26 1.8 14.61C1.39 11.18 1.39 7.72 1.8 4.29C1.88 3.65 2.17 3.05 2.63 2.59C3.1 2.14 3.7 1.85 4.34 1.78Z" fill="#CEAAD0" fill-opacity="1.000000" fill-rule="evenodd"/>
</svg>
