<svg width="36.000000" height="36.000000" viewBox="0 0 36 36" fill="none" xmlns="http://www.w3.org/2000/svg" xmlns:xlink="http://www.w3.org/1999/xlink">
	<desc>
			Created with Pixso.
	</desc>
	<defs>
		<clipPath id="clip60_614">
			<rect id="basil:vk-outline" width="36.000000" height="36.000000" fill="white" fill-opacity="0"/>
		</clipPath>
	</defs>
	<rect id="basil:vk-outline" width="36.000000" height="36.000000" fill="#FFFFFF" fill-opacity="0"/>
	<g clip-path="url(#clip60_614)">
		<path id="Vector" d="M35.1 25.29C34.29 23.65 33.21 22.15 31.92 20.85C31.49 20.36 31.03 19.89 30.56 19.44L30.5 19.38C30.33 19.21 30.16 19.04 29.98 18.86C31.75 16.41 33.27 13.77 34.5 11.01L34.55 10.9L34.58 10.78C34.75 10.24 34.93 9.2 34.27 8.26C33.59 7.3 32.5 7.12 31.76 7.12L28.39 7.12C27.69 7.09 26.99 7.28 26.4 7.67C25.81 8.06 25.36 8.63 25.11 9.29C24.38 11.01 23.47 12.66 22.4 14.19L22.4 10.24C22.4 9.73 22.35 8.88 21.8 8.16C21.15 7.3 20.2 7.12 19.54 7.12L14.2 7.12C13.5 7.11 12.82 7.36 12.3 7.83C11.79 8.3 11.47 8.95 11.42 9.65L11.42 9.71L11.42 9.78C11.42 10.51 11.7 11.05 11.93 11.38C12.04 11.54 12.15 11.67 12.22 11.76L12.23 11.78C12.31 11.87 12.36 11.94 12.41 12C12.54 12.18 12.73 12.46 12.78 13.17L12.78 15.38C11.71 13.58 10.83 11.67 10.15 9.69L10.14 9.66L10.13 9.62C9.95 9.15 9.65 8.45 9.07 7.92C8.38 7.3 7.57 7.12 6.84 7.12L3.42 7.12C2.67 7.12 1.77 7.3 1.1 8C0.44 8.7 0.37 9.54 0.37 9.98L0.37 10.18L0.41 10.37C1.36 14.77 3.31 18.89 6.11 22.4C7.4 24.42 9.13 26.11 11.19 27.34C13.25 28.56 15.57 29.28 17.95 29.44L18.01 29.44L18.08 29.44C19.17 29.44 20.3 29.35 21.16 28.78C22.31 28.01 22.4 26.84 22.4 26.25L22.4 24.54C22.69 24.78 23.06 25.1 23.51 25.53C24.05 26.08 24.48 26.55 24.85 26.96L25.05 27.18C25.34 27.5 25.62 27.82 25.88 28.08C26.2 28.4 26.61 28.76 27.11 29.02C27.65 29.31 28.22 29.44 28.83 29.44L32.25 29.44C32.97 29.44 34 29.27 34.73 28.43C35.52 27.51 35.46 26.38 35.22 25.57L35.17 25.43L35.1 25.29ZM26.52 25.45C26.06 24.93 25.58 24.42 25.09 23.93L25.08 23.93C23.05 21.96 22.1 21.62 21.43 21.62C21.07 21.62 20.67 21.66 20.42 21.98C20.3 22.14 20.22 22.32 20.2 22.51C20.16 22.73 20.14 22.95 20.15 23.17L20.15 26.25C20.15 26.63 20.08 26.79 19.91 26.91C19.67 27.07 19.17 27.19 18.09 27.19C16.04 27.05 14.06 26.43 12.3 25.37C10.53 24.32 9.05 22.86 7.96 21.12L7.95 21.1L7.94 21.08C5.32 17.83 3.5 14.01 2.62 9.94C2.63 9.75 2.67 9.63 2.74 9.55C2.81 9.48 2.98 9.37 3.42 9.37L6.84 9.37C7.22 9.37 7.42 9.46 7.56 9.59C7.72 9.73 7.86 9.98 8.03 10.42C8.87 12.89 10 15.2 11.08 16.9C11.61 17.75 12.14 18.45 12.62 18.95C12.86 19.2 13.09 19.41 13.31 19.55C13.53 19.7 13.77 19.81 14.02 19.81C14.15 19.81 14.31 19.79 14.46 19.73C14.62 19.66 14.75 19.54 14.83 19.38C14.99 19.1 15.03 18.68 15.03 18.14L15.03 13.08C14.95 11.85 14.58 11.16 14.22 10.67C14.15 10.57 14.07 10.48 14 10.38L13.98 10.36C13.91 10.28 13.85 10.2 13.79 10.12C13.72 10.03 13.68 9.91 13.67 9.8C13.68 9.68 13.73 9.57 13.83 9.49C13.92 9.41 14.03 9.37 14.15 9.37L19.54 9.37C19.85 9.37 19.96 9.45 20.01 9.52C20.08 9.62 20.15 9.82 20.15 10.24L20.15 17.04C20.15 17.84 20.52 18.39 21.06 18.39C21.68 18.39 22.13 18.01 22.91 17.23L22.93 17.21L22.94 17.2C24.69 15.06 26.13 12.67 27.2 10.12L27.2 10.1C27.28 9.87 27.44 9.68 27.64 9.55C27.84 9.42 28.07 9.36 28.31 9.37L31.76 9.37C32.23 9.37 32.38 9.49 32.44 9.56C32.49 9.64 32.53 9.8 32.44 10.11C31.2 12.87 29.68 15.48 27.89 17.91L27.88 17.93C27.71 18.2 27.52 18.49 27.49 18.83C27.46 19.19 27.62 19.52 27.89 19.87C28.09 20.17 28.5 20.57 28.92 20.98L28.96 21.02C29.4 21.45 29.87 21.91 30.25 22.36L30.27 22.37L30.28 22.39C31.41 23.52 32.36 24.83 33.07 26.26C33.19 26.65 33.12 26.86 33.03 26.96C32.92 27.08 32.69 27.19 32.25 27.19L28.83 27.19C28.59 27.2 28.36 27.14 28.16 27.03C27.9 26.89 27.68 26.7 27.48 26.49C27.26 26.27 27.03 26.01 26.74 25.7L26.52 25.45L26.52 25.45Z" fill="#FFF9F4" fill-opacity="1.000000" fill-rule="evenodd"/>
	</g>
</svg>
